<?xml version="1.0" encoding="UTF-8" standalone="no"?>
<!-- Created with Inkscape (http://www.inkscape.org/) -->

<svg
   xmlns:dc="http://purl.org/dc/elements/1.1/"
   xmlns:cc="http://creativecommons.org/ns#"
   xmlns:rdf="http://www.w3.org/1999/02/22-rdf-syntax-ns#"
   xmlns:svg="http://www.w3.org/2000/svg"
   xmlns="http://www.w3.org/2000/svg"
   xmlns:sodipodi="http://sodipodi.sourceforge.net/DTD/sodipodi-0.dtd"
   xmlns:inkscape="http://www.inkscape.org/namespaces/inkscape"
   width="744.09448819"
   height="1052.3622047"
   id="svg2"
   version="1.1"
   inkscape:version="0.48.4 r9939"
   sodipodi:docname="programs.svg">
  <defs
     id="defs4" />
  <sodipodi:namedview
     id="base"
     pagecolor="#ffffff"
     bordercolor="#666666"
     borderopacity="1.0"
     inkscape:pageopacity="0.0"
     inkscape:pageshadow="2"
     inkscape:zoom="0.12374369"
     inkscape:cx="-129.83491"
     inkscape:cy="-21.005435"
     inkscape:document-units="px"
     inkscape:current-layer="layer1"
     showgrid="false"
     inkscape:window-width="1301"
     inkscape:window-height="744"
     inkscape:window-x="65"
     inkscape:window-y="24"
     inkscape:window-maximized="1" />
  <metadata
     id="metadata7">
    <rdf:RDF>
      <cc:Work
         rdf:about="">
        <dc:format>image/svg+xml</dc:format>
        <dc:type
           rdf:resource="http://purl.org/dc/dcmitype/StillImage" />
        <dc:title></dc:title>
      </cc:Work>
    </rdf:RDF>
  </metadata>
  <g
     inkscape:label="Layer 1"
     inkscape:groupmode="layer"
     id="layer1">
    <g
       id="g3812"
       inkscape:export-filename="/home/brant/Desktop/Coin_Wars/assets/img/spawn-blue.png"
       inkscape:export-xdpi="90"
       inkscape:export-ydpi="90"
       style="stroke:none">
      <path
         style="fill:#c8ffff;fill-opacity:1;stroke:none;stroke-width:1;stroke-opacity:1"
         d="m 202.85715,295.21933 431.42856,0 0,431.42856 -431.42856,0 z"
         id="rect3766" />
      <path
         style="fill:#c8ffff;fill-opacity:1;stroke:none;stroke-width:1;stroke-opacity:1"
         d="m 202.85715,295.21933 431.42856,0 0,431.42856 -431.42856,0 z"
         id="rect3768" />
      <path
         style="fill:#ffffff;fill-opacity:1;stroke:none;stroke-width:1;stroke-opacity:1"
         d="m 231.16611,323.52829 374.81064,0 0,374.81064 -374.81064,0 z"
         id="rect3772" />
      <path
         style="fill:#c8ffff;fill-opacity:1;stroke:none;stroke-width:1;stroke-opacity:1"
         d="m 259.47507,351.83725 318.19272,0 0,318.19272 -318.19272,0 z"
         id="rect3774" />
      <path
         style="fill:#ffffff;fill-opacity:1;stroke:none;stroke-width:1;stroke-opacity:1"
         d="m 287.78403,380.14621 261.5748,0 0,261.5748 -261.5748,0 z"
         id="rect3776" />
      <path
         style="fill:#c8ffff;fill-opacity:1;stroke:none;stroke-width:1;stroke-opacity:1"
         d="m 316.09299,408.45517 204.95688,0 0,204.95688 -204.95688,0 z"
         id="rect3778" />
      <g
         transform="matrix(5.6676592,0,0,5.6676592,8930.7092,-1864.0417)"
         style="font-size:40px;font-style:normal;font-weight:normal;line-height:125%;letter-spacing:0px;word-spacing:0px;fill:#ffb200;fill-opacity:1;stroke:none;font-family:Sans"
         id="flowRoot3796">
        <path
           d="m -1507.3477,407.702 0,10.95703 4.961,0 c 1.8359,1e-5 3.2552,-0.47525 4.2578,-1.42578 1.0026,-0.95051 1.5039,-2.30467 1.5039,-4.0625 0,-1.74477 -0.5013,-3.09243 -1.5039,-4.04297 -1.0026,-0.9505 -2.4219,-1.42576 -4.2578,-1.42578 l -4.961,0 m -3.9453,-3.24219 8.9063,0 c 3.2682,3e-5 5.7356,0.74222 7.4023,2.22656 1.6797,1.47138 2.5195,3.63284 2.5196,6.48438 -10e-5,2.87762 -0.8399,5.0521 -2.5196,6.52344 -1.6667,1.47136 -4.1341,2.20704 -7.4023,2.20703 l -4.961,0 0,11.71875 -3.9453,0 0,-29.16016"
           style="fill:#ff5555;stroke:none"
           id="path3831" />
      </g>
    </g>
    <flowRoot
       xml:space="preserve"
       id="flowRoot3804"
       style="fill:black;stroke:none;stroke-opacity:1;stroke-width:1px;stroke-linejoin:miter;stroke-linecap:butt;fill-opacity:1;font-family:Sans;font-style:normal;font-weight:normal;font-size:40px;line-height:125%;letter-spacing:0px;word-spacing:0px"><flowRegion
         id="flowRegion3806"><rect
           id="rect3808"
           width="496.99506"
           height="513.15747"
           x="-1616.244"
           y="215.95587"
           style="stroke:none" /></flowRegion><flowPara
         id="flowPara3810" /></flowRoot>    <g
       inkscape:export-ydpi="90"
       inkscape:export-xdpi="90"
       inkscape:export-filename="/home/brant/Desktop/Coin_Wars/assets/img/spawn-red.png"
       id="g3833"
       transform="translate(484.87322,0)"
       style="stroke:none">
      <path
         id="path3835"
         d="m 202.85715,295.21933 431.42856,0 0,431.42856 -431.42856,0 z"
         style="fill:#c8ffff;fill-opacity:1;stroke:none;stroke-width:1;stroke-opacity:1"
         inkscape:connector-curvature="0" />
      <path
         id="path3837"
         d="m 202.85715,295.21933 431.42856,0 0,431.42856 -431.42856,0 z"
         style="fill:#ff5555;fill-opacity:1;stroke:none;stroke-width:1;stroke-opacity:1"
         inkscape:connector-curvature="0" />
      <path
         id="path3839"
         d="m 231.16611,323.52829 374.81064,0 0,374.81064 -374.81064,0 z"
         style="fill:#ffffff;fill-opacity:1;stroke:none;stroke-width:1;stroke-opacity:1"
         inkscape:connector-curvature="0" />
      <path
         id="path3841"
         d="m 259.47507,351.83725 318.19272,0 0,318.19272 -318.19272,0 z"
         style="fill:#ff5555;fill-opacity:1;stroke:none;stroke-width:1;stroke-opacity:1"
         inkscape:connector-curvature="0" />
      <path
         id="path3843"
         d="m 287.78403,380.14621 261.5748,0 0,261.5748 -261.5748,0 z"
         style="fill:#ffffff;fill-opacity:1;stroke:none;stroke-width:1;stroke-opacity:1"
         inkscape:connector-curvature="0" />
      <path
         id="path3845"
         d="m 316.09299,408.45517 204.95688,0 0,204.95688 -204.95688,0 z"
         style="fill:#ff5555;fill-opacity:1;stroke:none;stroke-width:1;stroke-opacity:1"
         inkscape:connector-curvature="0" />
      <g
         id="g3847"
         style="font-size:40px;font-style:normal;font-weight:normal;line-height:125%;letter-spacing:0px;word-spacing:0px;fill:#ffb200;fill-opacity:1;stroke:none;font-family:Sans"
         transform="matrix(5.6676592,0,0,5.6676592,8930.7092,-1864.0417)">
        <path
           id="path3849"
           style="fill:#c8ffff;fill-opacity:1;stroke:none"
           d="m -1507.3477,407.702 0,10.95703 4.961,0 c 1.8359,1e-5 3.2552,-0.47525 4.2578,-1.42578 1.0026,-0.95051 1.5039,-2.30467 1.5039,-4.0625 0,-1.74477 -0.5013,-3.09243 -1.5039,-4.04297 -1.0026,-0.9505 -2.4219,-1.42576 -4.2578,-1.42578 l -4.961,0 m -3.9453,-3.24219 8.9063,0 c 3.2682,3e-5 5.7356,0.74222 7.4023,2.22656 1.6797,1.47138 2.5195,3.63284 2.5196,6.48438 -10e-5,2.87762 -0.8399,5.0521 -2.5196,6.52344 -1.6667,1.47136 -4.1341,2.20704 -7.4023,2.20703 l -4.961,0 0,11.71875 -3.9453,0 0,-29.16016"
           inkscape:connector-curvature="0" />
      </g>
    </g>
  </g>
</svg>
