<?xml version="1.0" encoding="UTF-8" standalone="no"?>
<!-- Created with Inkscape (http://www.inkscape.org/) -->

<svg
   xmlns:dc="http://purl.org/dc/elements/1.1/"
   xmlns:cc="http://creativecommons.org/ns#"
   xmlns:rdf="http://www.w3.org/1999/02/22-rdf-syntax-ns#"
   xmlns:svg="http://www.w3.org/2000/svg"
   xmlns="http://www.w3.org/2000/svg"
   xmlns:sodipodi="http://sodipodi.sourceforge.net/DTD/sodipodi-0.dtd"
   xmlns:inkscape="http://www.inkscape.org/namespaces/inkscape"
   sodipodi:docname="programs.svg"
   inkscape:version="0.91 r"
   version="1.1"
   id="svg2"
   height="1052.3622047"
   width="744.09448819">
  <sodipodi:namedview
     inkscape:window-maximized="1"
     inkscape:window-y="24"
     inkscape:window-x="0"
     inkscape:window-height="682"
     inkscape:window-width="1366"
     showgrid="false"
     inkscape:current-layer="g3104"
     inkscape:document-units="px"
     inkscape:cy="557.87598"
     inkscape:cx="-816.32054"
     inkscape:zoom="0.24748738"
     inkscape:pageshadow="2"
     inkscape:pageopacity="0.0"
     borderopacity="1.0"
     bordercolor="#666666"
     pagecolor="#ffffff"
     id="base" />
  <defs
     id="defs4" />
  <metadata
     id="metadata7">
    <rdf:RDF>
      <cc:Work
         rdf:about="">
        <dc:format>image/svg+xml</dc:format>
        <dc:type
           rdf:resource="http://purl.org/dc/dcmitype/StillImage" />
        <dc:title />
      </cc:Work>
    </rdf:RDF>
  </metadata>
  <g
     id="layer1"
     inkscape:groupmode="layer"
     inkscape:label="Layer 1">
    <g
       transform="matrix(0.92715234,0,0,0.92715234,-2567.5854,-181.42095)"
       style="stroke:none"
       inkscape:export-ydpi="90"
       inkscape:export-xdpi="90"
       inkscape:export-filename="/home/brant/Desktop/Coin_Wars/assets/img/spawn-blue.png"
       id="g3812">
      <path
         inkscape:connector-curvature="0"
         id="rect3766"
         d="m 202.85715,295.21933 431.42856,0 0,431.42856 -431.42856,0 z"
         style="fill:#c8ffff;fill-opacity:1;stroke:none" />
      <path
         inkscape:connector-curvature="0"
         id="rect3768"
         d="m 202.85715,295.21933 431.42856,0 0,431.42856 -431.42856,0 z"
         style="fill:#c8ffff;fill-opacity:1;stroke:none" />
      <path
         inkscape:connector-curvature="0"
         id="rect3772"
         d="m 231.16611,323.52829 374.81064,0 0,374.81064 -374.81064,0 z"
         style="fill:#ffffff;fill-opacity:1;stroke:none" />
      <path
         inkscape:connector-curvature="0"
         id="rect3774"
         d="m 259.47507,351.83725 318.19272,0 0,318.19272 -318.19272,0 z"
         style="fill:#c8ffff;fill-opacity:1;stroke:none" />
      <path
         inkscape:connector-curvature="0"
         id="rect3776"
         d="m 287.78403,380.14621 261.5748,0 0,261.5748 -261.5748,0 z"
         style="fill:#ffffff;fill-opacity:1;stroke:none" />
      <path
         inkscape:connector-curvature="0"
         id="rect3778"
         d="m 316.09299,408.45517 204.95688,0 0,204.95688 -204.95688,0 z"
         style="fill:#c8ffff;fill-opacity:1;stroke:none" />
      <g
         id="flowRoot3796"
         style="font-size:40px;font-style:normal;font-weight:normal;line-height:125%;letter-spacing:0px;word-spacing:0px;fill:#ffb200;fill-opacity:1;stroke:none;font-family:Sans"
         transform="matrix(5.6676592,0,0,5.6676592,8930.7092,-1864.0417)">
        <path
           inkscape:connector-curvature="0"
           id="path3831"
           style="fill:#ff5555;stroke:none"
           d="m -1507.3477,407.702 0,10.95703 4.961,0 c 1.8359,1e-5 3.2552,-0.47525 4.2578,-1.42578 1.0026,-0.95051 1.5039,-2.30467 1.5039,-4.0625 0,-1.74477 -0.5013,-3.09243 -1.5039,-4.04297 -1.0026,-0.9505 -2.4219,-1.42576 -4.2578,-1.42578 l -4.961,0 m -3.9453,-3.24219 8.9063,0 c 3.2682,3e-5 5.7356,0.74222 7.4023,2.22656 1.6797,1.47138 2.5195,3.63284 2.5196,6.48438 -10e-5,2.87762 -0.8399,5.0521 -2.5196,6.52344 -1.6667,1.47136 -4.1341,2.20704 -7.4023,2.20703 l -4.961,0 0,11.71875 -3.9453,0 0,-29.16016" />
      </g>
    </g>
    <flowRoot
       style="fill:black;stroke:none;stroke-opacity:1;stroke-width:1px;stroke-linejoin:miter;stroke-linecap:butt;fill-opacity:1;font-family:Sans;font-style:normal;font-weight:normal;font-size:40px;line-height:125%;letter-spacing:0px;word-spacing:0px"
       id="flowRoot3804"
       xml:space="preserve"><flowRegion
         id="flowRegion3806"><rect
           style="stroke:none"
           y="215.95587"
           x="-1616.244"
           height="513.15747"
           width="496.99506"
           id="rect3808" /></flowRegion><flowPara
         id="flowPara3810" /></flowRoot>    <g
       style="stroke:none"
       transform="matrix(0.92715234,0,0,0.92715234,-2086.3395,-181.42095)"
       id="g3833"
       inkscape:export-filename="/home/brant/Desktop/Coin_Wars/assets/img/spawn-red.png"
       inkscape:export-xdpi="90"
       inkscape:export-ydpi="90">
      <path
         inkscape:connector-curvature="0"
         style="fill:#c8ffff;fill-opacity:1;stroke:none"
         d="m 202.85715,295.21933 431.42856,0 0,431.42856 -431.42856,0 z"
         id="path3835" />
      <path
         inkscape:connector-curvature="0"
         style="fill:#ff5555;fill-opacity:1;stroke:none"
         d="m 202.85715,295.21933 431.42856,0 0,431.42856 -431.42856,0 z"
         id="path3837" />
      <path
         inkscape:connector-curvature="0"
         style="fill:#ffffff;fill-opacity:1;stroke:none"
         d="m 231.16611,323.52829 374.81064,0 0,374.81064 -374.81064,0 z"
         id="path3839" />
      <path
         inkscape:connector-curvature="0"
         style="fill:#ff5555;fill-opacity:1;stroke:none"
         d="m 259.47507,351.83725 318.19272,0 0,318.19272 -318.19272,0 z"
         id="path3841" />
      <path
         inkscape:connector-curvature="0"
         style="fill:#ffffff;fill-opacity:1;stroke:none"
         d="m 287.78403,380.14621 261.5748,0 0,261.5748 -261.5748,0 z"
         id="path3843" />
      <path
         inkscape:connector-curvature="0"
         style="fill:#ff5555;fill-opacity:1;stroke:none"
         d="m 316.09299,408.45517 204.95688,0 0,204.95688 -204.95688,0 z"
         id="path3845" />
      <g
         transform="matrix(5.6676592,0,0,5.6676592,8930.7092,-1864.0417)"
         style="font-size:40px;font-style:normal;font-weight:normal;line-height:125%;letter-spacing:0px;word-spacing:0px;fill:#ffb200;fill-opacity:1;stroke:none;font-family:Sans"
         id="g3847">
        <path
           inkscape:connector-curvature="0"
           d="m -1507.3477,407.702 0,10.95703 4.961,0 c 1.8359,1e-5 3.2552,-0.47525 4.2578,-1.42578 1.0026,-0.95051 1.5039,-2.30467 1.5039,-4.0625 0,-1.74477 -0.5013,-3.09243 -1.5039,-4.04297 -1.0026,-0.9505 -2.4219,-1.42576 -4.2578,-1.42578 l -4.961,0 m -3.9453,-3.24219 8.9063,0 c 3.2682,3e-5 5.7356,0.74222 7.4023,2.22656 1.6797,1.47138 2.5195,3.63284 2.5196,6.48438 -10e-5,2.87762 -0.8399,5.0521 -2.5196,6.52344 -1.6667,1.47136 -4.1341,2.20704 -7.4023,2.20703 l -4.961,0 0,11.71875 -3.9453,0 0,-29.16016"
           style="fill:#c8ffff;fill-opacity:1;stroke:none"
           id="path3849" />
      </g>
    </g>
    <g
       inkscape:export-ydpi="90"
       inkscape:export-xdpi="90"
       inkscape:export-filename="/home/feliks/Programming/JavaScript/Canvas Games/DataBase/assets/img/processor.png"
       transform="translate(-3.6272783,-58.588846)"
       id="g3104">
      <g
         id="g3094"
         transform="translate(-241.42645,0)" />
      <g
         id="g3971"
         inkscape:export-xdpi="90"
         inkscape:export-ydpi="90">
        <rect
           y="624.09833"
           x="-2375.8787"
           height="400"
           width="400"
           id="rect3077"
           style="fill:none;fill-opacity:1;stroke:none" />
        <g
           id="g3936">
          <g
             transform="translate(-244.4366,0)"
             id="g3906">
            <g
               id="g3908">
              <path
                 transform="translate(2,0)"
                 id="path3910"
                 style="fill:#cccccc;fill-opacity:1;stroke:none"
                 d="m -2088.9954,887.23932 c 0,0 67.6803,0 67.6803,0 0,0 0,23.23351 0,23.23351 0,0 -67.6803,0 -67.6803,0 0,0 0,-23.23351 0,-23.23351"
                 inkscape:connector-curvature="0" />
              <path
                 transform="translate(2,0)"
                 id="path3912"
                 style="fill:#cccccc;fill-opacity:1;stroke:none"
                 d="m -2088.9954,837.03017 c 0,0 67.6803,0 67.6803,0 0,0 0,23.2335 0,23.2335 0,0 -67.6803,0 -67.6803,0 0,0 0,-23.2335 0,-23.2335"
                 inkscape:connector-curvature="0" />
              <path
                 transform="translate(2,0)"
                 id="path3914"
                 style="fill:#cccccc;fill-opacity:1;stroke:none"
                 d="m -2088.9954,786.82101 c 0,0 67.6803,0 67.6803,0 0,0 0,23.23351 0,23.23351 0,0 -67.6803,0 -67.6803,0 0,0 0,-23.23351 0,-23.23351"
                 inkscape:connector-curvature="0" />
              <path
                 transform="translate(2,0)"
                 id="path3916"
                 style="fill:#cccccc;fill-opacity:1;stroke:none"
                 d="m -2088.9954,736.61186 c 0,0 67.6803,0 67.6803,0 0,0 0,23.2335 0,23.2335 0,0 -67.6803,0 -67.6803,0 0,0 0,-23.2335 0,-23.2335"
                 inkscape:connector-curvature="0" />
              <path
                 id="path3918"
                 d="m -2088.9954,686.4027 67.6803,0 0,23.2335 -67.6803,0 z"
                 style="fill:#cccccc;fill-opacity:1;stroke:none"
                 inkscape:connector-curvature="0" />
              <path
                 id="path3920"
                 d="m -2088.9954,937.44848 67.6803,0 0,23.23351 -67.6803,0 z"
                 style="fill:#cccccc;fill-opacity:1;stroke:none"
                 inkscape:connector-curvature="0" />
            </g>
            <g
               id="g3922">
              <path
                 d="m -2088.9954,887.23932 c 0,0 67.6803,0 67.6803,0 0,0 0,23.23351 0,23.23351 0,0 -67.6803,0 -67.6803,0 0,0 0,-23.23351 0,-23.23351"
                 style="fill:#cccccc;fill-opacity:1;stroke:none"
                 id="path3924"
                 transform="translate(2,0)"
                 inkscape:connector-curvature="0" />
              <path
                 d="m -2088.9954,837.03017 c 0,0 67.6803,0 67.6803,0 0,0 0,23.2335 0,23.2335 0,0 -67.6803,0 -67.6803,0 0,0 0,-23.2335 0,-23.2335"
                 style="fill:#cccccc;fill-opacity:1;stroke:none"
                 id="path3926"
                 transform="translate(2,0)"
                 inkscape:connector-curvature="0" />
              <path
                 d="m -2088.9954,786.82101 c 0,0 67.6803,0 67.6803,0 0,0 0,23.23351 0,23.23351 0,0 -67.6803,0 -67.6803,0 0,0 0,-23.23351 0,-23.23351"
                 style="fill:#cccccc;fill-opacity:1;stroke:none"
                 id="path3928"
                 transform="translate(2,0)"
                 inkscape:connector-curvature="0" />
              <path
                 d="m -2088.9954,736.61186 c 0,0 67.6803,0 67.6803,0 0,0 0,23.2335 0,23.2335 0,0 -67.6803,0 -67.6803,0 0,0 0,-23.2335 0,-23.2335"
                 style="fill:#cccccc;fill-opacity:1;stroke:none"
                 id="path3930"
                 transform="translate(2,0)"
                 inkscape:connector-curvature="0" />
              <path
                 inkscape:connector-curvature="0"
                 style="fill:#cccccc;fill-opacity:1;stroke:none"
                 d="m -2088.9954,686.4027 67.6803,0 0,23.2335 -67.6803,0 z"
                 id="path3932" />
              <path
                 inkscape:connector-curvature="0"
                 style="fill:#cccccc;fill-opacity:1;stroke:none"
                 d="m -2088.9954,937.44848 67.6803,0 0,23.23351 -67.6803,0 z"
                 id="path3934" />
            </g>
          </g>
          <g
             id="g3832" />
          <g
             id="g3089"
             transform="translate(-2,0)">
            <g
               id="g3884">
              <path
                 d="M-2088.9954 887.239324C-2088.9954 887.239324 -2021.3151 887.239324 -2021.3151 887.239324C-2021.3151 887.239324 -2021.3151 910.472832 -2021.3151 910.472832C-2021.3151 910.472832 -2088.9954 910.472832 -2088.9954 910.472832C-2088.9954 910.472832 -2088.9954 887.239324 -2088.9954 887.239324"
                 style="stroke:none;fill-opacity:1;fill:#cccccc"
                 id="path3834"
                 transform="translate(2,0)" />
              <path
                 d="M-2088.9954 837.030168C-2088.9954 837.030168 -2021.3151 837.030168 -2021.3151 837.030168C-2021.3151 837.030168 -2021.3151 860.263674 -2021.3151 860.263674C-2021.3151 860.263674 -2088.9954 860.263674 -2088.9954 860.263674C-2088.9954 860.263674 -2088.9954 837.030168 -2088.9954 837.030168"
                 style="stroke:none;fill-opacity:1;fill:#cccccc"
                 id="path3836"
                 transform="translate(2,0)" />
              <path
                 d="M-2088.9954 786.821012C-2088.9954 786.821012 -2021.3151 786.821012 -2021.3151 786.821012C-2021.3151 786.821012 -2021.3151 810.054516 -2021.3151 810.054516C-2021.3151 810.054516 -2088.9954 810.054516 -2088.9954 810.054516C-2088.9954 810.054516 -2088.9954 786.821012 -2088.9954 786.821012"
                 style="stroke:none;fill-opacity:1;fill:#cccccc"
                 id="path3838"
                 transform="translate(2,0)" />
              <path
                 d="M-2088.9954 736.611856C-2088.9954 736.611856 -2021.3151 736.611856 -2021.3151 736.611856C-2021.3151 736.611856 -2021.3151 759.845358 -2021.3151 759.845358C-2021.3151 759.845358 -2088.9954 759.845358 -2088.9954 759.845358C-2088.9954 759.845358 -2088.9954 736.611856 -2088.9954 736.611856"
                 style="stroke:none;fill-opacity:1;fill:#cccccc"
                 id="path3840"
                 transform="translate(2,0)" />
              <path
                 inkscape:connector-curvature="0"
                 style="fill:#cccccc;fill-opacity:1;stroke:none"
                 d="m -2088.9954,686.4027 67.6803,0 0,23.2335 -67.6803,0 z"
                 id="rect3081" />
              <path
                 inkscape:connector-curvature="0"
                 style="fill:#cccccc;fill-opacity:1;stroke:none"
                 d="m -2088.9954,937.44848 67.6803,0 0,23.23351 -67.6803,0 z"
                 id="rect3083" />
            </g>
            <g
               id="g3892">
              <path
                 transform="translate(2,0)"
                 id="path3894"
                 style="stroke:none;fill-opacity:1;fill:#cccccc"
                 d="M-2088.9954 887.239324C-2088.9954 887.239324 -2021.3151 887.239324 -2021.3151 887.239324C-2021.3151 887.239324 -2021.3151 910.472832 -2021.3151 910.472832C-2021.3151 910.472832 -2088.9954 910.472832 -2088.9954 910.472832C-2088.9954 910.472832 -2088.9954 887.239324 -2088.9954 887.239324" />
              <path
                 transform="translate(2,0)"
                 id="path3896"
                 style="stroke:none;fill-opacity:1;fill:#cccccc"
                 d="M-2088.9954 837.030168C-2088.9954 837.030168 -2021.3151 837.030168 -2021.3151 837.030168C-2021.3151 837.030168 -2021.3151 860.263674 -2021.3151 860.263674C-2021.3151 860.263674 -2088.9954 860.263674 -2088.9954 860.263674C-2088.9954 860.263674 -2088.9954 837.030168 -2088.9954 837.030168" />
              <path
                 transform="translate(2,0)"
                 id="path3898"
                 style="stroke:none;fill-opacity:1;fill:#cccccc"
                 d="M-2088.9954 786.821012C-2088.9954 786.821012 -2021.3151 786.821012 -2021.3151 786.821012C-2021.3151 786.821012 -2021.3151 810.054516 -2021.3151 810.054516C-2021.3151 810.054516 -2088.9954 810.054516 -2088.9954 810.054516C-2088.9954 810.054516 -2088.9954 786.821012 -2088.9954 786.821012" />
              <path
                 transform="translate(2,0)"
                 id="path3900"
                 style="stroke:none;fill-opacity:1;fill:#cccccc"
                 d="M-2088.9954 736.611856C-2088.9954 736.611856 -2021.3151 736.611856 -2021.3151 736.611856C-2021.3151 736.611856 -2021.3151 759.845358 -2021.3151 759.845358C-2021.3151 759.845358 -2088.9954 759.845358 -2088.9954 759.845358C-2088.9954 759.845358 -2088.9954 736.611856 -2088.9954 736.611856" />
              <path
                 id="path3902"
                 d="m -2088.9954,686.4027 67.6803,0 0,23.2335 -67.6803,0 z"
                 style="fill:#cccccc;fill-opacity:1;stroke:none"
                 inkscape:connector-curvature="0" />
              <path
                 id="path3904"
                 d="m -2088.9954,937.44848 67.6803,0 0,23.23351 -67.6803,0 z"
                 style="fill:#cccccc;fill-opacity:1;stroke:none"
                 inkscape:connector-curvature="0" />
            </g>
          </g>
          <rect
             style="fill:#000000;fill-opacity:1;stroke:none"
             id="rect3079"
             width="181.82745"
             height="303.04578"
             x="-2266.7925"
             y="672.57544" />
          <path
             sodipodi:type="arc"
             style="fill:#666666;fill-opacity:1;stroke:none"
             id="path3102"
             sodipodi:cx="-2134.4524"
             sodipodi:cy="726.08295"
             sodipodi:rx="19.192898"
             sodipodi:ry="19.192898"
             d="m -2115.2595,726.08295 a 19.192898,19.192898 0 0 1 -19.1929,19.19289 19.192898,19.192898 0 0 1 -19.1929,-19.19289 19.192898,19.192898 0 0 1 19.1929,-19.1929 19.192898,19.192898 0 0 1 19.1929,19.1929 z" />
        </g>
      </g>
    </g>
  </g>
</svg>
